<svg xmlns="http://www.w3.org/2000/svg" viewBox="0 0 1200 434">
<polygon points="251.1,192.9 41.5,192.9 41.5,34.7 277.3,34.7 277.3,-0.7 0,-0.7 0,436.5 41.5,436.5 41.5,228.2 251.1,228.2" />
<path d="M357.9-0.7L182.4,436.5h43.9L279,300.4h199l53.4,136.1H576L404.5-0.7H357.9z M291.9,265l87.4-224.2L464.1,265H291.9z" />
<path d="M918.6,337.5c0.6-7.8,0.6-15.7,0-23.5c0.9-26.3-8-52-24.8-72.1c-17.5-19.7-41.8-31.9-68-34l0,0
	c10.9-2.3,21.3-6.7,30.6-12.9c11-6.8,20.5-15.5,28.2-25.9c6.7-8.9,12-18.7,15.7-29.3c3.6-11,5.4-22.5,5.4-34
	c0.5-17.7-3.5-35.3-11.6-51c-7.4-13.7-18-25.4-31-34C848.8,12.4,833,6.8,816.6,4.4c-17-3.4-34.4-5.1-51.7-5.1H578.4v437.2h185.1
	c20.5,0.4,41-1.8,60.9-6.5c15-3.4,29.4-8.9,42.9-16.3c10.7-6.1,20.2-14.2,27.9-23.8c6.5-8.2,11.8-17.4,15.7-27.2
	C914.3,354.6,917,346.1,918.6,337.5z M621.3,34.7h143.6c65.7,0,98.3,27.6,98.3,82.3c0.1,9.9-2,19.6-6.1,28.6
	c-4.1,9.2-10.4,17.3-18.4,23.5c-9,7.3-19.4,12.8-30.6,16c-14,4.2-28.6,6.2-43.2,5.8H621.3V34.7z M870.7,354.8
	c-5.9,11.2-14.6,20.8-25.2,27.9c-11.2,7.1-23.7,12-36.7,14.3c-14.5,2.8-29.2,4.1-43.9,4.1H621.3V226.5h143.6
	c30.1-1.9,60,5.5,85.7,21.1c20.1,14.6,31.2,38.5,29.6,63.3C880.6,326.1,877.4,341.2,870.7,354.8z" />
<path d="M956.1,400.7c2.6-14.8,9.1-28.6,18.7-40.1c10.1-12.6,21.5-24,34-34c12.9-10.2,26.4-19.6,40.5-28.2
	c14.3-8.4,26.5-16.2,36.7-23.5c14.4-9,28.3-18.9,41.5-29.6c12.5-10.2,23.9-21.6,34-34c10.2-12.4,18.4-26.3,24.5-41.2
	c6.2-15.8,9.2-32.7,8.8-49.7c1-18.8-2-37.6-8.8-55.1c-6.7-14.5-16.7-27.2-29.3-37.1c-12.4-10.4-26.8-18.2-42.2-23.1
	c-17.3-5.3-35.3-7.9-53.4-7.8c-21.2-0.5-42.3,3.4-61.9,11.6c-16.9,7-32,18-43.9,32c-11.9,14.4-20.7,31.1-25.9,49
	c-5.7,20.1-8.3,41-7.8,61.9h39.5c-0.6-15.6,0.8-31.1,4.4-46.3c3.5-13.7,9.3-26.8,17.4-38.4c7.9-11.3,18.4-20.5,30.6-26.9
	c14.4-6.5,30.1-9.5,45.9-8.8c12.8,0,25.5,1.9,37.8,5.8c11.4,3.8,21.9,9.9,31,17.7c9,7.7,16.2,17.2,21.1,27.9
	c5.1,11.6,7.7,24.1,7.5,36.7c0.3,15.4-2.7,30.8-8.8,44.9c-6.3,13.7-14.8,26.2-25.2,37.1c-12.5,12.6-26.1,24-40.8,34l-45.6,31.3
	c-15.7,9.9-30.3,20.8-44.9,31.6c-14.3,10.7-27.4,22.9-39.1,36.4c-11.8,13.3-21.4,28.5-28.2,44.9c-7.5,18.1-11.3,37.6-11.2,57.2
	H1200v-36.1H956.1z" />
</svg>
